<svg viewBox="0 0 512 512" xmlns="http://www.w3.org/2000/svg">
  <defs>
    <linearGradient id="g2a" x1="0" y1="0" x2="1" y2="1">
      <stop offset="0%" stop-color="#0c1929"/>
      <stop offset="100%" stop-color="#061220"/>
    </linearGradient>
    <linearGradient id="g2b" x1="0" y1="0" x2="1" y2="1">
      <stop offset="0%" stop-color="#38bdf8"/>
      <stop offset="100%" stop-color="#0284c7"/>
    </linearGradient>
    <linearGradient id="g2fill" x1="0" y1="0.5" x2="0.6" y2="0.5">
      <stop offset="0%" stop-color="#0ea5e9" stop-opacity="0.5"/>
      <stop offset="100%" stop-color="#0ea5e9" stop-opacity="0"/>
    </linearGradient>
  </defs>
  <!-- Background -->
  <rect x="16" y="16" width="480" height="480" rx="108" ry="108" fill="url(#g2a)"/>
  <!-- Radial rings -->
  <circle cx="256" cy="256" r="60" fill="none" stroke="#38bdf8" stroke-width="0.5" opacity="0.1"/>
  <circle cx="256" cy="256" r="110" fill="none" stroke="#38bdf8" stroke-width="0.5" opacity="0.08"/>
  <circle cx="256" cy="256" r="160" fill="none" stroke="#38bdf8" stroke-width="0.5" opacity="0.06"/>
  <circle cx="256" cy="256" r="210" fill="none" stroke="#38bdf8" stroke-width="0.5" opacity="0.04"/>
  <!-- Horizontal battery -->
  <rect x="108" y="188" width="264" height="136" rx="20" fill="none" stroke="url(#g2b)" stroke-width="5" opacity="0.8"/>
  <!-- Terminal nub -->
  <rect x="372" y="224" width="24" height="64" rx="8" fill="url(#g2b)" opacity="0.8"/>
  <!-- Charge fill -->
  <rect x="122" y="202" width="148" height="108" rx="12" fill="url(#g2fill)"/>
  <!-- Tilde / wavy line -->
  <path d="M176 256 C196 224 216 224 236 256 C256 288 276 288 296 256"
        fill="none" stroke="#38bdf8" stroke-width="8" stroke-linecap="round"/>
  <!-- Inner wave glow -->
  <path d="M176 256 C196 224 216 224 236 256 C256 288 276 288 296 256"
        fill="none" stroke="#7dd3fc" stroke-width="3" stroke-linecap="round" opacity="0.4"/>
</svg>
